Coordinates
version=1
nRows=12
nColumns=33
inDegrees=yes

Units are S.I. units (second, meters, Newtons, ...)
Angles are in degrees.

endheader
time	ground_thorax_rot_x	ground_thorax_rot_y	ground_thorax_rot_z	ground_thorax_tx	ground_thorax_ty	ground_thorax_tz	clav_prot_r	clav_elev_r	scapula_abduction_r	scapula_elevation_r	scapula_upward_rot_r	scapula_winging_r	shoulder_elv_r	plane_of_elev_r	axial_rot_r	elbow_flexion_r	pro_sup_r	wrist_flex_r	wrist_dev_r	clav_prot_l	clav_elev_l	scapula_abduction_l	scapula_elevation_l	scapula_upward_rot_l	scapula_winging_l	shoulder_elv_l	plane_of_elev_l	axial_rot_l	elbow_flexion_l	pro_sup_l	wrist_flex_l	wrist_dev_l
      6.59000000	    -41.41026979	     -6.87118437	      5.88257588	   -210.04786835	    889.02508510	     -6.59749401	     10.45342966	    -45.00000000	     36.64345919	    -45.00000000	    -41.84206787	   3499.52375223	  -2268.03355542	    148.48808843	    -96.60950771	     16.76650971	     59.28685213	     18.14228196	      4.44221368	     15.20586032	     38.35109368	    -38.30179092	    -45.00000000	    -45.00000000	  -2433.12563468	   -455.98874525	    140.03549423	    157.53723552	     12.65955905	     45.80736464	      6.49506403	    -23.10389943
      6.60000000	    -41.41605563	     -6.68334623	      5.70818655	   -208.02518888	    890.84068422	     -6.56891337	     10.47551634	    -45.00000000	     36.97340061	    -45.00000000	    -40.99757417	   3499.46534480	  -2267.88979811	    148.39893826	    -96.73964496	     16.92674377	     60.70686133	     18.04977017	      4.30586846	     15.13803954	     38.32503278	    -38.60059149	    -45.00000000	    -45.00000000	  -2433.01993493	   -455.76728612	    139.84400329	    158.23219793	     12.76851650	     46.51853338	      6.36114581	    -23.12826215
      6.61000000	    -41.37765971	     -6.53708949	      5.57935454	   -205.89858943	    892.68215243	     -6.52159019	     10.53512817	    -45.00000000	     37.26882518	    -45.00000000	    -40.29994212	   3499.35259727	  -2267.62852617	    148.18830086	    -96.87384075	     17.18933835	     61.89856254	     17.92177373	      4.11855441	     14.77248424	     38.17209096	    -38.82590238	    -45.00000000	    -45.00000000	  -2432.98376690	   -455.49767384	    139.65188519	    159.04754226	     12.85700711	     47.08947920	      6.22594859	    -23.14179739
      6.62000000	    -41.37141923	     -6.35491897	      5.38114922	   -203.66074940	    894.52094651	     -6.46234434	     10.48640627	    -45.00000000	     37.62714741	    -45.00000000	    -39.26675983	   3499.39311986	  -2267.46156076	    148.19207001	    -96.99563659	     17.24282343	     63.13726553	     17.91443971	      4.07180995	     15.00997004	     38.23421949	    -39.10489470	    -45.00000000	    -45.00000000	  -2432.82026765	   -455.22189671	    139.37196734	    159.74859676	     12.97114184	     47.62341913	      6.05957003	    -23.11123249
      6.63000000	    -41.38685022	     -6.17883753	      5.19440444	   -201.30972797	    896.32523189	     -6.40017335	     10.42512641	    -45.00000000	     38.03404328	    -45.00000000	    -38.13800609	   3499.37398881	  -2267.32297509	    148.19193607	    -97.05156848	     17.35680966	     64.38250598	     17.88907431	      3.99940304	     15.15804884	     38.29145567	    -39.50768498	    -45.00000000	    -45.00000000	  -2432.63185595	   -455.08264170	    139.17717815	    160.50119723	     13.02996397	     48.10310776	      5.91202325	    -23.07223443
      6.64000000	    -41.38673475	     -6.04886174	      5.10044110	   -198.84619767	    898.06264351	     -6.34337901	     10.29402850	    -45.00000000	     38.36792015	    -45.00000000	    -36.80748667	   3499.40803908	  -2267.13517206	    148.33782985	    -96.98833857	     17.50126532	     65.76155674	     17.91076293	      3.93845716	     15.58299327	     38.45228859	    -39.83284007	    -45.00000000	    -45.00000000	  -2432.51475062	   -454.84779555	    138.97376861	    161.32312681	     13.12475345	     48.52622712	      5.69592673	    -22.97919724
      6.65000000	    -41.37639486	     -5.87287241	      4.94305420	   -196.27334723	    899.70149894	     -6.29858869	     10.27545217	    -45.00000000	     38.76984510	    -45.00000000	    -35.87188169	   3499.40334725	  -2266.97219032	    148.26132734	    -97.27687658	     17.57792009	     66.96755367	     17.84658244	      3.85855280	     15.32745005	     38.51970212	    -40.14841999	    -45.00000000	    -45.00000000	  -2432.36892797	   -454.56122475	    138.71054058	    161.88441143	     13.21420003	     48.80035518	      5.63539158	    -23.00254793
      6.66000000	    -41.40475942	     -5.62744230	      4.63704489	   -193.59405754	    901.21211071	     -6.26903513	     10.29998429	    -45.00000000	     39.09775243	    -45.00000000	    -34.87114136	   3499.41462270	  -2266.78678169	    148.08065515	    -97.54502701	     17.76942527	     68.06646762	     17.72021229	      3.71461595	     14.96676338	     38.60048785	    -40.30868695	    -45.00000000	    -44.27963857	  -2432.30365594	   -454.45352698	    138.61522042	    162.38880603	     13.22385033	     48.96162532	      5.69291133	    -23.11379004
      6.67000000	    -41.44327596	     -5.44745658	      4.51667168	   -190.82074756	    902.56074031	     -6.25528216	     10.09163632	    -45.00000000	     39.46302888	    -45.00000000	    -33.48311662	   3499.50034921	  -2266.64072948	    148.24578255	    -97.54846829	     17.87638629	     69.33538077	     17.78342459	      3.68381093	     15.47582923	     38.83140810	    -40.66445950	    -45.00000000	    -43.79566397	  -2432.15209771	   -454.37951564	    138.55268505	    163.01440207	     13.21926219	     48.94955012	      5.52378959	    -22.98576184
      6.68000000	    -41.46693053	     -5.23672362	      4.31797837	   -187.96142645	    903.71958208	     -6.25423637	      9.91182418	    -45.00000000	     39.70243037	    -45.00000000	    -32.09092301	   3499.57112035	  -2266.45998113	    148.27187281	    -97.53419959	     18.05657416	     70.73151629	     17.73199177	      3.58294155	     15.72676689	     38.99704347	    -40.91661793	    -45.00000000	    -43.20118657	  -2432.18821651	   -454.34016170	    138.58426504	    163.63379914	     13.22250808	     48.76205572	      5.46198733	    -22.96321726
      6.69000000	    -41.51090832	     -5.02093815	      4.10305474	   -185.02590829	    904.66300932	     -6.26064454	      9.82387707	    -45.00000000	     40.03555716	    -45.00000000	    -30.91109924	   3499.63730661	  -2266.35092736	    148.24258901	    -97.74068766	     18.18071117	     72.04217314	     17.65248691	      3.49683249	     15.69367466	     39.16675616	    -41.13105218	    -45.00000000	    -42.47668672	  -2432.09131989	   -454.29767778	    138.49082661	    164.10076879	     13.17589637	     48.40225899	      5.53000196	    -23.00729067
      6.70000000	    -41.56270942	     -4.77698971	      3.81200768	   -182.02197407	    905.37043111	     -6.26772720	     10.00872682	    -45.00000000	     40.32646097	    -45.00000000	    -30.22651603	   3499.60439393	  -2266.30996208	    147.87653802	    -98.21646629	     18.30400347	     73.00372142	     17.35673949	      3.34157965	     14.77616397	     39.19268549	    -41.24046328	    -45.00000000	    -41.62753916	  -2431.91460658	   -454.19026279	    138.24577741	    164.31324721	     13.11141739	     48.01753490	      5.86946512	    -23.26696727
